HIERARCHY
ROOT Hips
{
	OFFSET	0.00	0.00	0.00
	CHANNELS 6 Xposition Yposition Zposition Zrotation Xrotation Yrotation
	JOINT LeftUpLeg
	{
		OFFSET	 0.126116	-0.014019	-0.065224
		CHANNELS 3 Zrotation Xrotation Yrotation
		JOINT LeftLeg
		{
			OFFSET	 0.000000	 0.000000	 0.569914
			CHANNELS 3 Zrotation Xrotation Yrotation
			JOINT LeftFoot
			{
				OFFSET	 0.000000	 0.000000	 0.544423
				CHANNELS 3 Zrotation Xrotation Yrotation
				JOINT LeftToeBase
				{
					OFFSET	 0.000000	 0.000000	 0.207117
					CHANNELS 3 Zrotation Xrotation Yrotation
					End Site
					{
						OFFSET	 0.000000	 0.000000	 0.207117
					}
				}
			}
		}
	}
	JOINT RightUpLeg
	{
		OFFSET	-0.124023	-0.008373	-0.065224
		CHANNELS 3 Zrotation Xrotation Yrotation
		JOINT RightLeg
		{
			OFFSET	 0.000000	 0.000000	 0.570047
			CHANNELS 3 Zrotation Xrotation Yrotation
			JOINT RightFoot
			{
				OFFSET	 0.000000	 0.000000	 0.544354
				CHANNELS 3 Zrotation Xrotation Yrotation
				JOINT RightToeBase
				{
					OFFSET	 0.000000	 0.000000	 0.207540
					CHANNELS 3 Zrotation Xrotation Yrotation
					End Site
					{
						OFFSET	 0.000000	 0.000000	 0.207540
					}
				}
			}
		}
	}
	JOINT Spine
	{
		OFFSET	 0.000184	-0.007763	 0.117403
		CHANNELS 3 Zrotation Xrotation Yrotation
		JOINT Spine1
		{
			OFFSET	 0.000000	 0.000000	 0.137269
			CHANNELS 3 Zrotation Xrotation Yrotation
			JOINT Spine2
			{
				OFFSET	 0.000000	 0.000000	 0.156879
				CHANNELS 3 Zrotation Xrotation Yrotation
				JOINT LeftShoulder
				{
					OFFSET	 0.080501	-0.002496	 0.160144
					CHANNELS 3 Zrotation Xrotation Yrotation
					JOINT LeftArm
					{
						OFFSET	 0.000000	 0.000000	 0.164363
						CHANNELS 3 Zrotation Xrotation Yrotation
						JOINT LeftForeArm
						{
							OFFSET	 0.000000	 0.000000	 0.364576
							CHANNELS 3 Zrotation Xrotation Yrotation
							JOINT LeftHand
							{
								OFFSET	 0.000000	 0.000000	 0.360812
								CHANNELS 3 Zrotation Xrotation Yrotation
								JOINT LeftHandIndex1
								{
									OFFSET	 0.000000	 0.000000	 0.086006
									CHANNELS 3 Zrotation Xrotation Yrotation
									JOINT LeftHandIndex2
									{
										OFFSET	 0.000000	 0.000000	 0.047236
										CHANNELS 3 Zrotation Xrotation Yrotation
										JOINT LeftHandIndex3
										{
											OFFSET	-0.004284	-0.000551	 0.038166
											CHANNELS 3 Zrotation Xrotation Yrotation
											End Site
											{
												OFFSET	-0.004284	-0.000551	 0.038166
											}
										}
									}
								}
							}
						}
					}
				}
				JOINT Neck
				{
					OFFSET	 0.000000	 0.000000	 0.176489
					CHANNELS 3 Zrotation Xrotation Yrotation
					JOINT Head
					{
						OFFSET	 0.000000	-0.001747	 0.077940
						CHANNELS 3 Zrotation Xrotation Yrotation
						End Site
						{
							OFFSET	 0.000000	-0.001747	 0.077940
						}
					}
				}
				JOINT RightShoulder
				{
					OFFSET	-0.080363	 0.000306	 0.159706
					CHANNELS 3 Zrotation Xrotation Yrotation
					JOINT RightArm
					{
						OFFSET	 0.000000	 0.000000	 0.164196
						CHANNELS 3 Zrotation Xrotation Yrotation
						JOINT RightForeArm
						{
							OFFSET	 0.000000	 0.000000	 0.365611
							CHANNELS 3 Zrotation Xrotation Yrotation
							JOINT RightHand
							{
								OFFSET	 0.000000	 0.000000	 0.360648
								CHANNELS 3 Zrotation Xrotation Yrotation
								JOINT RightHandIndex1
								{
									OFFSET	 0.000000	 0.000000	 0.069977
									CHANNELS 3 Zrotation Xrotation Yrotation
									JOINT RightHandIndex2
									{
										OFFSET	 0.000000	 0.000000	 0.052305
										CHANNELS 3 Zrotation Xrotation Yrotation
										JOINT RightHandIndex3
										{
											OFFSET	 0.009002	-0.000782	 0.042196
											CHANNELS 3 Zrotation Xrotation Yrotation
											End Site
											{
												OFFSET	 0.009002	-0.000782	 0.042196
											}
										}
									}
								}
							}
						}
					}
				}
			}
		}
	}
}
MOTION
Frames:    13
Frame Time: 0.03333334
-26.140700	-49.045520	 0.618322	-53.837430	 0.416765	 0.139886	 4.120881	-1.741005	 179.845800	 3.148374	-11.594570	 1.749879	 4.354856	 71.406410	 1.230548	-2.385833	 28.452760	 0.000004	-4.121233	-2.153045	-179.879800	-3.140193	-11.964010	-1.790653	-4.386740	 71.428390	-1.219508	 2.384659	 28.388700	-0.000001	 26.829920	 2.704441	 0.089745	-0.000865	-1.797864	-0.000070	-0.001036	-2.157436	-0.000088	-96.855680	 86.735770	-170.910800	 12.090980	 1.915943	-6.709803	-98.867420	 29.376960	-21.397440	-16.224260	-0.324208	-4.324836	-2.482367	 5.116409	 7.306710	-5.213516	-0.193813	 3.566525	-1.378229	 35.397820	-2.634230	-0.000002	-3.783157	-0.089647	-0.001351	 1.263073	 0.000015	 104.097500	 88.275240	 160.879200	-12.297030	 2.928372	 8.184141	 99.325810	 29.479170	 20.875020	 15.895590	-1.490522	 8.621264	 3.315085	 2.709412	-9.595269	 5.070815	-0.697434	-9.399699	-2.350882	 35.473990	 5.254307
-26.151540	-49.055340	 0.618013	-53.486310	 0.416765	 0.139886	 4.120881	-1.741005	 179.845800	 3.148374	-11.594570	 1.749879	 4.354856	 71.406410	 1.230548	-2.385833	 28.452760	 0.000004	-4.121233	-2.153045	-179.879800	-3.140193	-11.964010	-1.790653	-4.386740	 71.428390	-1.219508	 2.384659	 28.388700	-0.000001	 30.456880	 2.704449	 0.089745	-0.000851	-1.797851	-0.000069	-0.001033	-2.157420	-0.000087	-96.855680	 86.735770	-170.910800	 12.090980	 1.915943	-6.709803	-0.835286	-1.822581	 7.115903	-16.224280	-0.324224	-4.324790	-2.482367	 5.116409	 7.306710	-5.213516	-0.193813	 3.566525	-1.378229	 35.397820	-2.634230	-0.000002	-3.783157	-0.089647	-0.001368	 1.263151	 0.000015	 104.097500	 88.275240	 160.879200	-12.297030	 2.928372	 8.184141	 1.041666	-1.386635	-6.950134	 15.895580	-1.490461	 8.621327	 3.315085	 2.709412	-9.595269	 5.070815	-0.697434	-9.399699	-2.350882	 35.473990	 5.254307
-26.160830	-49.063260	 0.618207	-53.487570	 0.416765	 0.139886	 4.120881	-1.741005	 179.845800	 3.148374	-11.594570	 1.749879	 4.354856	 71.406410	 1.230548	-2.385833	 28.452760	 0.000004	-4.121233	-2.153045	-179.879800	-3.140193	-11.964010	-1.790653	-4.386740	 71.428390	-1.219508	 2.384659	 28.388700	-0.000001	 33.441730	 2.704441	 0.089745	-0.000848	-1.797864	-0.000069	-0.001019	-2.157437	-0.000087	-96.855680	 86.735770	-170.910800	 12.090980	 1.915943	-6.709803	 48.156570	 8.773937	 27.180340	-16.224260	-0.324208	-4.324731	-2.482367	 5.116409	 7.306710	-5.213516	-0.193813	 3.566525	-1.378229	 35.397820	-2.634230	-0.000002	-3.783157	-0.089647	-0.001368	 1.263151	 0.000015	 104.097500	 88.275240	 160.879200	-12.297030	 2.928372	 8.184141	-48.023100	 8.934825	-26.737250	 15.895650	-1.490443	 8.621211	 3.315085	 2.709412	-9.595269	 5.070815	-0.697434	-9.399699	-2.350882	 35.473990	 5.254307
-26.169000	-49.069600	 0.619933	-53.818310	 0.416765	 0.139886	 4.120881	-1.741005	 179.845800	 3.148374	-11.594570	 1.749879	 4.354856	 71.406410	 1.230548	-2.385833	 28.452760	 0.000004	-4.121233	-2.153045	-179.879800	-3.140193	-11.964010	-1.790653	-4.386740	 71.428390	-1.219508	 2.384659	 28.388700	-0.000001	 35.818520	 2.704445	 0.089745	-0.000861	-1.797858	-0.000070	-0.001046	-2.157429	-0.000089	-96.855680	 86.735770	-170.910800	 12.090980	 1.915943	-6.709803	 140.057300	 46.208680	 21.313460	-16.224200	-0.324204	-4.324734	-2.482367	 5.116409	 7.306710	-5.213516	-0.193813	 3.566525	-1.378229	 35.397820	-2.634230	-0.000002	-3.783157	-0.089647	-0.001388	 1.263189	 0.000015	 104.097500	 88.275240	 160.879200	-12.297030	 2.928372	 8.184141	-140.006700	 45.765680	-21.103350	 15.895680	-1.490458	 8.621256	 3.315085	 2.709412	-9.595269	 5.070815	-0.697434	-9.399699	-2.350882	 35.473990	 5.254307
-26.176130	-49.074660	 0.621784	-54.176800	 0.416765	 0.139886	 4.120881	-1.741005	 179.845800	 3.148374	-11.594570	 1.749879	 4.354856	 71.406410	 1.230548	-2.385833	 28.452760	 0.000004	-4.121233	-2.153045	-179.879800	-3.140193	-11.964010	-1.790653	-4.386740	 71.428390	-1.219508	 2.384659	 28.388700	-0.000001	 37.552410	 2.704449	 0.089745	-0.000868	-1.797850	-0.000071	-0.001036	-2.157420	-0.000088	-96.855680	 86.735770	-170.910800	 12.090980	 1.915943	-6.709803	-64.406950	 13.292550	-21.024180	-16.224270	-0.324224	-4.324769	-2.482367	 5.116409	 7.306710	-5.213516	-0.193813	 3.566525	-1.378229	 35.397820	-2.634230	-0.000002	-3.783157	-0.089647	-0.001371	 1.263150	 0.000015	 104.097500	 88.275240	 160.879200	-12.297030	 2.928372	 8.184141	 64.684390	 13.634720	 20.698320	 15.895690	-1.490440	 8.621254	 3.315085	 2.709412	-9.595269	 5.070815	-0.697434	-9.399699	-2.350882	 35.473990	 5.254307
-26.183870	-49.079350	 0.623755	-54.373940	 0.416765	 0.139886	 4.120881	-1.741005	 179.845800	 3.148374	-11.594570	 1.749879	 4.354856	 71.406410	 1.230548	-2.385833	 28.452760	 0.000004	-4.121233	-2.153045	-179.879800	-3.140193	-11.964010	-1.790653	-4.386740	 71.428390	-1.219508	 2.384659	 28.388700	-0.000001	 38.769750	 2.704440	 0.089744	-0.000861	-1.797865	-0.000071	-0.001029	-2.157437	-0.000087	-96.855680	 86.735770	-170.910800	 12.090980	 1.915943	-6.709803	 112.420500	 38.067830	 28.550130	-16.224400	-0.324230	-4.324711	-2.482367	 5.116409	 7.306710	-5.213516	-0.193813	 3.566525	-1.378229	 35.397820	-2.634230	-0.000002	-3.783157	-0.089647	-0.001371	 1.263074	 0.000015	 104.097500	 88.275240	 160.879200	-12.297030	 2.928372	 8.184141	-112.479400	 37.742700	-28.126200	 15.895730	-1.490440	 8.621230	 3.315085	 2.709412	-9.595269	 5.070815	-0.697434	-9.399699	-2.350882	 35.473990	 5.254307
-26.188440	-49.081600	 0.624860	-54.367610	 0.416765	 0.139886	 4.120881	-1.741005	 179.845800	 3.148374	-11.594570	 1.749879	 4.354856	 71.406410	 1.230548	-2.385833	 28.452760	 0.000004	-4.121233	-2.153045	-179.879800	-3.140193	-11.964010	-1.790653	-4.386740	 71.428390	-1.219508	 2.384659	 28.388700	-0.000001	 38.948150	 2.704445	 0.089745	-0.000837	-1.797858	-0.000068	-0.001009	-2.157428	-0.000085	-96.855680	 86.735770	-170.910800	 12.090980	 1.915943	-6.709803	 22.827350	 0.760477	 13.851490	-16.224430	-0.324230	-4.324646	-2.482367	 5.116409	 7.306710	-5.213516	-0.193813	 3.566525	-1.378229	 35.397820	-2.634230	-0.000002	-3.783157	-0.089647	-0.001374	 1.263152	 0.000015	 104.097500	 88.275240	 160.879200	-12.297030	 2.928372	 8.184141	-22.631110	 1.093335	-13.524690	 15.895730	-1.490465	 8.621223	 3.315085	 2.709412	-9.595269	 5.070815	-0.697434	-9.399699	-2.350882	 35.473990	 5.254307
-26.193470	-49.083540	 0.625963	-54.300800	 0.416765	 0.139886	 4.120881	-1.741005	 179.845800	 3.148374	-11.594570	 1.749879	 4.354856	 71.406410	 1.230548	-2.385833	 28.452760	 0.000004	-4.121233	-2.153045	-179.879800	-3.140193	-11.964010	-1.790653	-4.386740	 71.428390	-1.219508	 2.384659	 28.388700	-0.000001	 38.370390	 2.704449	 0.089745	-0.000848	-1.797851	-0.000069	-0.001043	-2.157420	-0.000088	-96.855680	 86.735770	-170.910800	 12.090980	 1.915943	-6.709803	-52.167750	 7.974114	-20.238160	-16.224520	-0.324239	-4.324636	-2.482367	 5.116409	 7.306710	-5.213516	-0.193813	 3.566525	-1.378229	 35.397820	-2.634230	-0.000002	-3.783157	-0.089647	-0.001381	 1.263150	 0.000016	 104.097500	 88.275240	 160.879200	-12.297030	 2.928372	 8.184141	 52.403360	 8.375764	 19.998720	 15.895780	-1.490447	 8.621196	 3.315085	 2.709412	-9.595269	 5.070815	-0.697434	-9.399699	-2.350882	 35.473990	 5.254307
-26.197370	-49.084600	 0.626663	-54.283210	 0.416765	 0.139886	 4.120881	-1.741005	 179.845800	 3.148374	-11.594570	 1.749879	 4.354856	 71.406410	 1.230548	-2.385833	 28.452760	 0.000004	-4.121233	-2.153045	-179.879800	-3.140193	-11.964010	-1.790653	-4.386740	 71.428390	-1.219508	 2.384659	 28.388700	-0.000001	 36.997080	 2.704445	 0.089745	-0.000889	-1.797857	-0.000072	-0.001074	-2.157428	-0.000091	-96.855680	 86.735770	-170.910800	 12.090980	 1.915943	-6.709803	-73.541820	 17.282270	-26.056990	-16.224550	-0.324293	-4.324650	-2.482367	 5.116409	 7.306710	-5.213516	-0.193813	 3.566525	-1.378229	 35.397820	-2.634230	-0.000002	-3.783157	-0.089647	-0.001368	 1.263112	 0.000015	 104.097500	 88.275240	 160.879200	-12.297030	 2.928372	 8.184141	 73.858600	 17.569650	 25.672190	 15.895830	-1.490494	 8.621271	 3.315085	 2.709412	-9.595269	 5.070815	-0.697434	-9.399699	-2.350882	 35.473990	 5.254307
-26.200590	-49.085010	 0.627022	-54.190980	 0.416765	 0.139886	 4.120881	-1.741005	 179.845800	 3.148374	-11.594570	 1.749879	 4.354856	 71.406410	 1.230548	-2.385833	 28.452760	 0.000004	-4.121233	-2.153045	-179.879800	-3.140193	-11.964010	-1.790653	-4.386740	 71.428390	-1.219508	 2.384659	 28.388700	-0.000001	 34.807520	 2.704449	 0.089745	-0.000854	-1.797851	-0.000070	-0.001033	-2.157420	-0.000088	-96.855680	 86.735770	-170.910800	 12.090980	 1.915943	-6.709803	-53.657280	 3.905449	-40.756500	-16.224550	-0.324252	-4.324546	-2.482367	 5.116409	 7.306710	-5.213516	-0.193813	 3.566525	-1.378229	 35.397820	-2.634230	-0.000002	-3.783157	-0.089647	-0.001357	 1.263150	 0.000015	 104.097500	 88.275240	 160.879200	-12.297030	 2.928372	 8.184141	 53.876590	 4.300778	 40.508720	 15.895850	-1.490492	 8.621295	 3.315085	 2.709412	-9.595269	 5.070815	-0.697434	-9.399699	-2.350882	 35.473990	 5.254307
-26.203350	-49.084950	 0.627009	-53.955410	 0.416765	 0.139886	 4.120881	-1.741005	 179.845800	 3.148374	-11.594570	 1.749879	 4.354856	 71.406410	 1.230548	-2.385833	 28.452760	 0.000004	-4.121233	-2.153045	-179.879800	-3.140193	-11.964010	-1.790653	-4.386740	 71.428390	-1.219508	 2.384659	 28.388700	-0.000001	 31.679330	 2.704453	 0.089745	-0.000872	-1.797843	-0.000071	-0.001036	-2.157412	-0.000088	-96.855680	 86.735770	-170.910800	 12.090980	 1.915943	-6.709803	-19.649490	-36.763100	-55.771250	-16.224590	-0.324331	-4.324592	-2.482367	 5.116409	 7.306710	-5.213516	-0.193813	 3.566525	-1.378229	 35.397820	-2.634230	-0.000002	-3.783157	-0.089647	-0.001357	 1.263073	 0.000015	 104.097500	 88.275240	 160.879200	-12.297030	 2.928372	 8.184141	 19.863170	-36.297250	 55.791550	 15.895810	-1.490488	 8.621330	 3.315085	 2.709412	-9.595269	 5.070815	-0.697434	-9.399699	-2.350882	 35.473990	 5.254307
-26.205630	-49.084290	 0.626605	-53.720910	 0.416765	 0.139886	 4.120881	-1.741005	 179.845800	 3.148374	-11.594570	 1.749879	 4.354856	 71.406410	 1.230548	-2.385833	 28.452760	 0.000004	-4.121233	-2.153045	-179.879800	-3.140193	-11.964010	-1.790653	-4.386740	 71.428390	-1.219508	 2.384659	 28.388700	-0.000001	 27.936880	 2.704453	 0.089745	-0.000865	-1.797844	-0.000071	-0.001036	-2.157411	-0.000088	-96.855680	 86.735770	-170.910800	 12.090980	 1.915943	-6.709803	 172.305200	-30.392500	 60.033330	-16.224510	-0.324386	-4.324533	-2.482367	 5.116409	 7.306710	-5.213516	-0.193813	 3.566525	-1.378229	 35.397820	-2.634230	-0.000002	-3.783157	-0.089647	-0.001354	 1.263149	 0.000015	 104.097500	 88.275240	 160.879200	-12.297030	 2.928372	 8.184141	-172.170300	-30.844780	-60.164360	 15.895770	-1.490522	 8.621400	 3.315085	 2.709412	-9.595269	 5.070815	-0.697434	-9.399699	-2.350882	 35.473990	 5.254307
-26.207630	-49.083170	 0.625831	-53.567700	 0.416765	 0.139886	 4.120881	-1.741005	 179.845800	 3.148374	-11.594570	 1.749879	 4.354856	 71.406410	 1.230548	-2.385833	 28.452760	 0.000004	-4.121233	-2.153045	-179.879800	-3.140193	-11.964010	-1.790653	-4.386740	 71.428390	-1.219508	 2.384659	 28.388700	-0.000001	 23.145820	 2.704449	 0.089745	-0.000848	-1.797850	-0.000069	-0.001026	-2.157421	-0.000087	-96.855680	 86.735770	-170.910800	 12.090980	 1.915943	-6.709803	-34.883160	-16.050940	-49.193000	-16.224510	-0.324362	-4.324482	-2.482367	 5.116409	 7.306710	-5.213516	-0.193813	 3.566525	-1.378229	 35.397820	-2.634230	-0.000002	-3.783157	-0.089647	-0.001371	 1.263151	 0.000015	 104.097500	 88.275240	 160.879200	-12.297030	 2.928372	 8.184141	 35.054620	-15.597130	 49.082340	 15.895770	-1.490585	 8.621427	 3.315085	 2.709412	-9.595269	 5.070815	-0.697434	-9.399699	-2.350882	 35.473990	 5.254307
